<?xml version="1.0" standalone="no"?>
<!DOCTYPE svg PUBLIC "-//W3C//DTD SVG 20010904//EN"
 "http://www.w3.org/TR/2001/REC-SVG-20010904/DTD/svg10.dtd">
<svg version="1.0" xmlns="http://www.w3.org/2000/svg"
 width="1200.000000pt" height="1200.000000pt" viewBox="0 0 1200.000000 1200.000000"
 preserveAspectRatio="xMidYMid meet">

<g transform="translate(0.000000,1200.000000) scale(0.100000,-0.100000)"
fill="#FFFFFF" stroke="none">
<path d="M1905 9243 c-213 -28 -398 -187 -471 -403 -18 -53 -19 -150 -19
-2840 0 -2690 1 -2787 19 -2840 63 -187 209 -331 391 -387 58 -17 216 -18
4175 -18 3959 0 4117 1 4175 18 182 56 328 200 391 387 18 53 19 150 19 2840
0 2690 -1 2787 -19 2840 -62 184 -203 326 -386 387 -53 17 -205 18 -4150 19
-2252 1 -4108 -1 -4125 -3z m7143 -721 c-3 -9 -235 -224 -1143 -1062 -319
-294 -672 -621 -785 -725 -113 -105 -266 -247 -341 -315 -74 -69 -280 -259
-457 -423 l-322 -298 -322 298 c-177 164 -383 354 -457 423 -75 68 -228 210
-341 315 -113 104 -466 431 -785 725 -908 838 -1140 1053 -1143 1062 -2 4
1370 8 3048 8 1678 0 3050 -4 3048 -8z m-6626 -497 c107 -99 547 -506 979
-904 431 -398 820 -758 864 -800 44 -42 192 -180 330 -306 370 -341 631 -582
920 -850 142 -132 288 -266 323 -297 83 -74 139 -91 223 -68 41 12 68 34 424
365 289 268 550 509 920 850 138 126 286 264 330 306 44 42 433 402 864 800
432 398 872 805 979 904 107 99 217 199 243 223 l49 44 0 -2411 0 -2411 -3870
0 -3870 0 0 2411 0 2411 49 -44 c27 -23 136 -124 243 -223z"/>
</g>
</svg>
