<?xml version="1.0" standalone="no"?>
<!DOCTYPE svg PUBLIC "-//W3C//DTD SVG 20010904//EN"
 "http://www.w3.org/TR/2001/REC-SVG-20010904/DTD/svg10.dtd">
<svg version="1.0" xmlns="http://www.w3.org/2000/svg"
 width="920.000000pt" height="920.000000pt" viewBox="0 0 920.000000 920.000000"
 preserveAspectRatio="xMidYMid meet">

<g transform="translate(0.000000,920.000000) scale(0.100000,-0.100000)"
fill="#00e676" stroke="none">
<path d="M1978 7782 c-67 -24 -130 -72 -167 -126 -66 -95 -61 137 -61 -2812
l0 -2683 22 -58 c29 -79 112 -161 193 -193 59 -23 65 -23 475 -23 410 0 416 0
475 23 71 28 149 101 185 175 l25 50 5 1094 5 1094 1395 0 1395 1 5 -1095 5
-1094 24 -50 c35 -71 117 -148 188 -176 57 -22 66 -22 473 -22 410 0 416 0
475 23 81 32 164 114 193 193 l22 58 0 2684 0 2684 -22 58 c-25 69 -99 147
-173 183 l-50 25 -445 0 -445 0 -52 -27 c-76 -40 -115 -79 -154 -150 l-34 -63
-5 -1095 -5 -1095 -1395 0 -1395 0 -5 1095 -5 1095 -27 52 c-40 76 -79 115
-150 154 l-63 34 -430 2 c-386 2 -435 1 -477 -15z"/>
<path d="M987 7100 c-109 -19 -200 -87 -249 -188 l-33 -67 -3 -742 -2 -743
-210 0 c-187 0 -215 -2 -265 -21 -77 -29 -155 -102 -191 -181 -28 -62 -29 -66
-32 -273 -2 -121 1 -234 7 -267 22 -121 89 -209 201 -261 l64 -31 211 -2 210
-1 5 -739 5 -739 26 -56 c37 -79 90 -133 167 -171 l66 -33 213 -3 213 -4 0
2265 0 2264 -177 0 c-98 1 -199 -3 -226 -7z"/>
<path d="M7670 4845 l0 -2267 213 4 c205 3 214 4 268 29 76 36 129 86 170 161
l34 63 5 744 5 745 210 1 210 0 65 31 c106 51 168 125 195 232 14 52 16 106
13 285 -3 221 -3 222 -32 285 -37 79 -114 152 -191 181 -50 19 -78 21 -265 21
l-210 0 0 723 c0 791 1 774 -59 869 -17 26 -52 63 -78 82 -84 62 -115 68 -345
73 l-208 4 0 -2266z"/>
</g>
</svg>
