<?xml version="1.0" standalone="no"?>
<!DOCTYPE svg PUBLIC "-//W3C//DTD SVG 20010904//EN"
 "http://www.w3.org/TR/2001/REC-SVG-20010904/DTD/svg10.dtd">
<svg version="1.0" xmlns="http://www.w3.org/2000/svg"
 width="840.000000pt" height="524.000000pt" viewBox="0 0 840.000000 524.000000"
 preserveAspectRatio="xMidYMid meet">

<g transform="translate(0.000000,524.000000) scale(0.100000,-0.100000)"
fill="#00e676" stroke="none">
<path d="M2210 4825 c-140 -22 -218 -43 -258 -69 -50 -31 -100 -90 -125 -144
-35 -79 -32 -136 16 -432 25 -151 49 -297 53 -325 16 -120 86 -226 177 -268
83 -40 134 -43 294 -18 89 14 168 32 198 45 98 45 154 111 181 218 14 53 14
74 3 155 -7 51 -10 95 -7 98 5 6 231 44 259 45 14 0 18 -15 24 -82 28 -330
163 -758 387 -1228 50 -104 351 -643 427 -765 11 -18 2 -38 -87 -180 -297
-478 -528 -1022 -548 -1295 -4 -54 -2 -71 15 -97 55 -87 198 -89 263 -3 10 14
23 52 28 85 29 176 140 415 314 670 57 85 293 383 371 470 36 40 36 40 53 19
9 -12 60 -72 113 -135 208 -248 362 -473 459 -674 67 -136 91 -206 115 -320
18 -91 33 -118 78 -146 82 -50 164 -44 224 16 30 30 33 38 33 94 0 114 -86
406 -189 640 -95 214 -272 544 -398 739 -29 45 -53 89 -53 97 0 7 66 127 147
267 209 361 246 431 355 673 93 207 169 412 231 625 27 94 65 281 77 380 7 52
13 100 15 106 2 8 34 4 102 -11 98 -22 98 -22 96 -51 -11 -148 -6 -193 26
-258 59 -121 134 -163 346 -196 201 -32 274 -19 371 64 80 68 90 101 153 496
45 278 51 322 51 365 0 102 -79 226 -175 274 -59 30 -244 63 -355 64 -107 1
-169 -23 -235 -94 -63 -68 -82 -115 -105 -270 -11 -73 -23 -135 -26 -138 -3
-3 -67 7 -142 22 -312 62 -581 97 -937 122 -380 26 -1022 8 -1419 -40 -127
-16 -428 -60 -486 -71 -27 -6 -29 -4 -39 47 -6 30 -16 88 -22 129 -13 88 -42
150 -96 204 -81 82 -192 108 -353 81z m2635 -630 c110 -8 233 -20 273 -25 40
-6 78 -10 84 -10 24 0 -33 -309 -88 -477 -20 -58 -53 -142 -74 -185 -95 -192
-272 -359 -454 -427 -33 -12 -123 -31 -200 -42 -124 -17 -155 -18 -251 -8
-116 12 -249 45 -318 80 -168 86 -328 303 -417 569 -43 129 -88 331 -92 409
l-3 65 85 12 c84 12 238 27 440 43 187 15 799 12 1015 -4z"/>
<path d="M4127 3970 c-110 -28 -210 -111 -258 -215 -94 -199 -6 -434 197 -527
41 -20 66 -23 159 -23 97 0 116 3 165 26 78 36 154 114 193 196 29 61 32 77
31 158 -1 118 -26 184 -101 265 -78 85 -158 123 -266 126 -45 2 -99 -1 -120
-6z"/>
</g>
</svg>
